<?xml version="1.0" encoding="utf-8"?>
<!-- Generator: Adobe Illustrator 17.0.0, SVG Export Plug-In . SVG Version: 6.00 Build 0)  -->
<!DOCTYPE svg PUBLIC "-//W3C//DTD SVG 1.1//EN" "http://www.w3.org/Graphics/SVG/1.1/DTD/svg11.dtd">
<svg version="1.1" id="Layer_1" xmlns="http://www.w3.org/2000/svg" xmlns:xlink="http://www.w3.org/1999/xlink" x="0px" y="0px"
	 width="58.046px" height="58.045px" viewBox="-8.215 -8.215 58.046 58.045" enable-background="new -8.215 -8.215 58.046 58.045"
	 xml:space="preserve">
<g>
	<path fill="none" stroke="#FFFFFF" stroke-width="1.0461" stroke-miterlimit="10" d="M40.189,49.307H1.427
		c-5.037,0-9.119-4.083-9.119-9.119V1.426c0-5.035,4.083-9.118,9.119-9.118h38.762c5.037,0,9.119,4.083,9.119,9.118v38.762
		C49.308,45.224,45.225,49.307,40.189,49.307z"/>
	<path fill="none" stroke="#FFFFFF" stroke-width="1.0461" stroke-miterlimit="10" d="M24.483,30.823h-6.828L11.17,35.83
		c0,0,0.989-6.356,0.071-6.977c-3.059-2.071-5.078-5.572-5.078-9.524c0-6.321,5.172-11.493,11.493-11.493h6.828
		c6.321,0,11.493,5.172,11.493,11.493S30.805,30.823,24.483,30.823z"/>
</g>
</svg>
