<?xml version="1.0" encoding="UTF-8" standalone="no"?>
<!-- Created with Inkscape (http://www.inkscape.org/) -->

<svg
   xmlns:dc="http://purl.org/dc/elements/1.1/"
   xmlns:cc="http://creativecommons.org/ns#"
   xmlns:rdf="http://www.w3.org/1999/02/22-rdf-syntax-ns#"
   xmlns:svg="http://www.w3.org/2000/svg"
   xmlns="http://www.w3.org/2000/svg"
   xmlns:sodipodi="http://sodipodi.sourceforge.net/DTD/sodipodi-0.dtd"
   xmlns:inkscape="http://www.inkscape.org/namespaces/inkscape"
   id="svg2"
   version="1.1"
   inkscape:version="0.91 r13725"
   xml:space="preserve"
   width="52.02"
   height="52.02"
   viewBox="0 0 52.02 52.02"
   sodipodi:docname="contact_icon_green.svg"><metadata
     id="metadata8"><rdf:RDF><cc:Work
         rdf:about=""><dc:format>image/svg+xml</dc:format><dc:type
           rdf:resource="http://purl.org/dc/dcmitype/StillImage" /><dc:title></dc:title></cc:Work></rdf:RDF></metadata><defs
     id="defs6" /><sodipodi:namedview
     pagecolor="#ffffff"
     bordercolor="#666666"
     borderopacity="1"
     objecttolerance="10"
     gridtolerance="10"
     guidetolerance="10"
     inkscape:pageopacity="0"
     inkscape:pageshadow="2"
     inkscape:window-width="1600"
     inkscape:window-height="821"
     id="namedview4"
     showgrid="false"
     inkscape:zoom="2.9137761"
     inkscape:cx="-22.08815"
     inkscape:cy="71.947875"
     inkscape:window-x="0"
     inkscape:window-y="24"
     inkscape:window-maximized="1"
     inkscape:current-layer="g12"
     fit-margin-top="0"
     fit-margin-left="0"
     fit-margin-right="0"
     fit-margin-bottom="0" /><g
     id="g10"
     inkscape:groupmode="layer"
     inkscape:label="ink_ext_XXXXXX"
     transform="matrix(1.25,0,0,-1.25,-265.77875,698.25625)"><g
       id="g12"
       transform="scale(0.1,0.1)"><path
         d="m 5,5 11390,0 0,6799.98 -11390,0 L 5,5 Z"
         style="fill:none;fill-opacity:1;fill-rule:nonzero;stroke:none"
         id="path14"
         inkscape:connector-curvature="0" /><path
         d="m 5,5 11390,0 0,6799.98 -11390,0 L 5,5 Z"
         style="fill:none;stroke:#231f20;stroke-width:10;stroke-linecap:butt;stroke-linejoin:miter;stroke-miterlimit:10;stroke-dasharray:none;stroke-opacity:1"
         id="path16"
         inkscape:connector-curvature="0" /><path
         d="m 2473.26,5173.64 -277.9,0 c -36.1,0 -65.38,29.27 -65.38,65.38 l 0,277.9 c 0,36.11 29.28,65.38 65.38,65.38 l 277.9,0 c 36.11,0 65.38,-29.27 65.38,-65.38 l 0,-277.9 c 0,-36.11 -29.27,-65.38 -65.38,-65.38 z"
         style="fill:none;stroke:#01b994;stroke-width:7.5;stroke-linecap:butt;stroke-linejoin:miter;stroke-miterlimit:10;stroke-dasharray:none;stroke-opacity:1"
         id="path18"
         inkscape:connector-curvature="0" /><path
         d="m 2382.15,5381.44 0,0 74.73,-77.23 12.23,-12.57 m -267.9,0.75 c -0.19,0.38 -0.22,0.43 -0.41,0.82 l 87.35,88.21 0,0 -85.17,-86.02 c -0.34,-0.34 -2.23,-2.71 -2.24,-2.25 m 262.66,170.63 c 3.21,0.01 5.76,-2.41 5.55,-5.27 m -4.46,6.48 -258.86,0 c -3.41,0 -6.17,-2.47 -6.17,-5.51 l 0,-165 c 0.37,-2.14 0,-1.76 3.01,-2.69 l 262.02,-2.82 c 5.12,0 6.17,2.47 6.17,5.56 l 0,165.01 c 0,2.98 -2.77,5.45 -6.17,5.45 l 0,0 z"
         style="fill:none;stroke:#01b994;stroke-width:7.5;stroke-linecap:butt;stroke-linejoin:miter;stroke-miterlimit:10;stroke-dasharray:none;stroke-opacity:1"
         id="path20"
         inkscape:connector-curvature="0" /><path
         d="m 2251.25,5418.67 -51.79,46.32 138.7,-124.05 0.89,0.84 m 131.61,123.21 -24.4,-22.04 c 0,0 3.11,2.41 0,0 l -109.99,-103.8"
         style="fill:none;stroke:#01b994;stroke-width:7.5;stroke-linecap:butt;stroke-linejoin:miter;stroke-miterlimit:10;stroke-dasharray:none;stroke-opacity:1"
         id="path22"
         inkscape:connector-curvature="0" /></g></g></svg>