<?xml version="1.0" encoding="utf-8"?>
<!-- Generator: Adobe Illustrator 17.0.0, SVG Export Plug-In . SVG Version: 6.00 Build 0)  -->
<!DOCTYPE svg PUBLIC "-//W3C//DTD SVG 1.1//EN" "http://www.w3.org/Graphics/SVG/1.1/DTD/svg11.dtd">
<svg version="1.1" id="Layer_1" xmlns="http://www.w3.org/2000/svg" xmlns:xlink="http://www.w3.org/1999/xlink" x="0px" y="0px"
	 width="33px" height="30px" viewBox="0 0 33 30" enable-background="new 0 0 33 30" xml:space="preserve">
<g>
	<path fill-rule="evenodd" clip-rule="evenodd" fill="#01B994" d="M26.562,17.375c-1.945,0-3.685,0.85-4.865,2.187L12.871,16.5
		c-0.007-0.543-0.086-1.067-0.224-1.568l9.32-4.203c1.168,1.169,2.795,1.896,4.596,1.896c3.555,0,6.438-2.826,6.438-6.312
		C33,2.826,30.118,0,26.562,0c-3.555,0-6.437,2.826-6.437,6.313c0,0.637,0.098,1.251,0.277,1.831l-9.227,4.161
		c-1.177-1.26-2.861-2.055-4.738-2.055C2.882,10.25,0,13.083,0,16.578c0,3.495,2.882,6.328,6.438,6.328
		c2.508,0,4.676-1.413,5.739-3.472l8.122,2.818c-0.11,0.462-0.173,0.941-0.173,1.435c0,3.486,2.882,6.312,6.437,6.312
		C30.118,30,33,27.174,33,23.688S30.118,17.375,26.562,17.375z"/>
</g>
</svg>
