<?xml version="1.0" encoding="utf-8"?>
<!-- Generator: Adobe Illustrator 17.0.0, SVG Export Plug-In . SVG Version: 6.00 Build 0)  -->
<!DOCTYPE svg PUBLIC "-//W3C//DTD SVG 1.1//EN" "http://www.w3.org/Graphics/SVG/1.1/DTD/svg11.dtd">
<svg version="1.1" id="Layer_1" xmlns="http://www.w3.org/2000/svg" xmlns:xlink="http://www.w3.org/1999/xlink" x="0px" y="0px"
	 width="627px" height="175px" viewBox="0 0 627 175" enable-background="new 0 0 627 175" xml:space="preserve">
<g>
	<path fill="#4AC8AF" d="M43.751,0.855h33.582L69.635,27.85H36.052L43.751,0.855 M34.137,34.399h33.584l-26.553,90.874H7.585
		L34.137,34.399z"/>
	<path fill="#4AC8AF" d="M81.679,34.399h32.467l-3.243,11.089h0.375c6.892-8.904,16.8-13.441,28.367-13.441
		c14.739,0,24.785,5.209,19.09,24.694l-20.024,68.532h-33.582l17.522-59.968c2.208-7.556,0.901-10.749-5.069-10.749
		c-5.969,0-9.141,3.193-11.35,10.749l-17.523,59.968H55.126L81.679,34.399"/>
	<polyline fill="#4AC8AF" points="183.846,27.393 83.701,27.393 91.458,0.855 478.231,0.855 470.475,27.393 218.547,27.393 
		185.277,139.479 150.574,139.479 183.846,27.393 	"/>
	<path fill="#4AC8AF" d="M232.909,34.399h32.465l-4.221,14.446h0.371c6.922-10.917,17.598-16.798,27.485-16.798h5.413l-8.249,28.219
		c-2.838-0.503-5.4-0.671-8.201-0.671c-11.939,0-20.069,4.2-23.554,16.124l-14.477,49.554h-33.585L232.909,34.399"/>
	<path fill="#4AC8AF" d="M342.708,64.467c2.938-9.575,1.926-13.941-5.522-13.941c-7.251,0-10.944,4.366-13.886,13.941l-1.235,4.03
		h19.402L342.708,64.467 M317.012,84.959l-3.663,11.925c-2.992,9.743,0.94,12.264,5.839,12.264c6.273,0,11.03-3.36,14.845-15.79
		h31.753c-7.145,22.003-22.868,34.267-52.073,34.267c-34.107,0-41.061-13.103-30.438-47.705
		c10.673-34.77,28.025-47.873,59.778-47.873c28.227,0,39.235,10.753,29.128,43.672l-2.835,9.24
		C369.346,84.959,317.012,84.959,317.012,84.959z"/>
	<path fill="#4AC8AF" d="M412.024,105.116c7.838,0,11.185-5.713,16.93-25.364c5.693-19.484,5.679-25.196-2.153-25.196
		c-7.65,0-11,5.712-16.695,25.196C404.366,99.403,404.375,105.116,412.024,105.116 M389.778,34.399h32.463l-3.631,12.432h0.371
		c7.051-10.079,16.262-14.784,27.271-14.784c22.577,0,25.512,16.123,15.694,49.721c-10.16,34.77-25.713,45.857-44.369,45.857
		c-9.514,0-16.744-3.361-17.405-12.6h-0.369l-9.39,30.09h-33.584L389.778,34.399z"/>
	<path fill="#4AC8AF" d="M496.741,0.855h33.586l-7.7,26.995h-33.584L496.741,0.855 M487.131,34.399h33.584l-26.554,90.874h-33.584
		L487.131,34.399z"/>
	<path fill="#4AC8AF" d="M554.122,105.116c7.652,0,11-5.713,16.691-25.198c5.744-19.65,5.732-25.362-1.916-25.362
		c-7.834,0-11.182,5.712-16.926,25.362C546.278,99.403,546.288,105.116,554.122,105.116 M592.606,5.341h33.582l-35.043,119.932
		H558.68l3.633-12.431h-0.375c-7.045,10.08-15.326,14.783-27.264,14.783c-22.578,0-25.515-16.126-15.701-49.72
		c10.016-34.266,25.713-45.858,44.373-45.858c9.516,0,16.74,3.36,17.403,12.6h0.373L592.606,5.341z"/>
</g>
<g>
	<g>
		<path fill="#4AC8AF" d="M596.116,137.861h1.416c1.193,0,2.287-0.054,2.287-1.291c0-1.039-0.996-1.203-1.91-1.203h-1.793V137.861
			 M594.764,134.383h3.361c2.071,0,3.047,0.734,3.047,2.24c0,1.418-0.994,2.008-2.287,2.135l2.483,3.459h-1.451l-2.368-3.371h-1.433
			v3.371h-1.352L594.764,134.383L594.764,134.383z M597.67,144.029L597.67,144.029c-3.484,0-6.15-2.472-6.15-5.756
			c0-3.21,2.666-5.684,6.15-5.684c3.442,0,6.112,2.474,6.112,5.684C603.782,141.557,601.112,144.029,597.67,144.029z
			 M597.67,131.602c4.059,0,7.459,2.888,7.459,6.671c0,3.856-3.4,6.745-7.459,6.745c-4.08,0-7.505-2.889-7.505-6.745
			C590.165,134.49,593.59,131.602,597.67,131.602z"/>
		<path fill="#4AC8AF" d="M186.028,156.867c-5.935,0-9.91,3.373-10.796,6.377c-0.899,3.039,1.168,6.276,7.081,6.141
			c5.846-0.137,9.473-3.44,10.335-6.375C193.522,160.039,191.763,156.867,186.028,156.867 M181.008,174.984
			c-12.89,0.305-22.461-3.947-19.932-11.603c2.497-7.559,14.017-12.18,26.883-12.215c12.472-0.033,21.126,4.385,18.967,11.539
			C204.773,170.027,193.703,174.682,181.008,174.984z"/>
	</g>
</g>
<g>
	<polyline fill="#4AC8AF" points="254.387,174.309 240.148,174.309 239.764,161.826 239.236,161.826 230.259,174.309 
		216.021,174.309 213.108,151.772 226.82,151.772 227.17,165.338 227.675,165.199 237.105,151.772 249.036,151.772 249.561,165.404 
		249.957,165.404 259.189,151.772 272.573,151.772 254.387,174.309 	"/>
	<polyline fill="#4AC8AF" points="271.798,174.309 279.437,151.772 315.034,151.772 313.205,157.17 291.517,157.17 290.476,160.24 
		308.869,160.24 307.097,165.469 288.705,165.469 287.539,168.912 310.084,168.912 308.254,174.309 271.798,174.309 	"/>
	<path fill="#4AC8AF" d="M336.083,157.371l-1.404,4.152h8.635c4.088,0,5.161-4.152,1.998-4.152H336.083 M343.452,174.344
		c0,0-0.068-0.776-0.028-1.281c0.074-1.383,1.057-3.508,1.057-3.508c0.382-1.317,0.089-2.6-2.356-2.971h-9.163l-2.618,7.725H316.5
		l7.637-22.537h29.071c6.332,0,9.72,2.835,8.862,6.14c-0.589,2.328-3.531,4.59-8.005,5.535c-0.199,0.2-0.377,0.338-0.434,0.506
		c3.827,0.574,5.297,2.463,4.753,4.453l-1.074,3.948c-0.147,0.439-0.409,1.011,0.442,1.214c0.244,0.067,0.442,0.067,0.574,0.067
		l-0.229,0.674L343.452,174.344z"/>
</g>
<g>
	<g>
		<path fill="#4AC8AF" d="M390.012,165.166h-7.385l-1.418,4.186h8.834c2.11,0,3.575-1.014,4.137-2.094
			C394.778,166.078,393.307,165.166,390.012,165.166 M394.137,157.068h-8.765l-1.293,3.815h6.986c2.309,0,5.07-1.147,5.299-1.822
			c0.377-1.114-0.379-1.991-2.227-1.991V157.068z M400.532,173.027c-3.069,0.879-6.434,1.282-9.6,1.282h-25.381l7.64-22.537h26.239
			c6.082,0.136,11.004,1.957,10.551,5.23c-0.5,2.059-2.877,4.016-6.727,5.264c4.03,1.148,5.545,3.476,4.637,5.769
			C407.161,169.99,404.299,172.018,400.532,173.027z"/>
		<path fill="#4AC8AF" d="M441.415,156.867c-5.934,0-9.913,3.373-10.797,6.377c-0.897,3.039,1.168,6.276,7.084,6.141
			c5.845-0.137,9.47-3.44,10.334-6.375C448.909,160.039,447.149,156.867,441.415,156.867 M436.397,174.984
			c-12.893,0.305-22.463-3.947-19.936-11.603c2.498-7.559,14.02-12.18,26.885-12.215c12.471-0.033,21.127,4.385,18.965,11.539
			C460.161,170.027,449.088,174.682,436.397,174.984z"/>
	</g>
</g>
<g>
	<path fill="#4AC8AF" d="M486.622,159.162h-0.53l-6.998,7.625h9.096L486.622,159.162 M489.725,174.309l-0.553-2.832h-14.24
		l-2.543,2.832h-13.842l23.194-22.537h14.24l8.051,22.537H489.725z"/>
	<polyline fill="#4AC8AF" points="533.221,157.609 527.559,174.309 513.321,174.309 518.981,157.609 506.194,157.609 
		508.17,151.772 547.92,151.772 545.944,157.609 533.221,157.609 	"/>
</g>
<g>
	<g>
		<path fill="#4AC8AF" d="M569.586,174.816h-6.923c-6.598-0.169-12.118-3.339-12.844-4.115c-0.906-1.012-1.375-2.16-1.25-3.304
			h13.646c0.504,2.392,5.471,2.527,9.655,1.851c1.343-0.471,2.578-1.381,1.892-2.09c-0.332-0.371-1.012-0.506-1.635-0.607
			c-4.146-0.809-8.845-1.149-12.753-2.059c-3.79-1.078-7.481-2.631-7.096-5.127c0.305-2.261,2.842-4.691,6.529-6.039
			c4.748-1.758,10.535-2.297,15.906-2.193c5.36,0.133,10.237,0.91,13.246,2.933c1.424,1.047,2.206,2.633,1.965,4.118h-13.447
			c0.324-1.352-2.707-2.127-5.82-2.094c-1.594,0.035-3.102,0.406-3.803,1.113c-1.014,1.047-0.535,1.184,0.176,1.621l14.306,2.326
			c6.237,1.252,8.424,4.524,5.774,7.864C583.715,172.422,576.667,174.547,569.586,174.816"/>
		<path fill="#4AC8AF" d="M1.462,162.147h115.462l3.516-10.375h25.117c5.998,0,9.943,1.789,11.568,4.185
			c1.261,1.924,0.303,4.555-1.767,6.578c-1.904,1.926-5.608,3.713-9.626,4.285c-5.452,0.912-11.57,0.877-16.764,0.641l-2.322,6.848
			h-13.845l2.281-6.725H0L1.462,162.147 M143.6,158.522c-0.563-0.676-2.008-1.081-3.985-1.081h-7.252l-1.543,4.555h8.109
			c1.648,0,3.028-0.572,3.938-1.316C143.755,160.006,144.175,159.162,143.6,158.522z"/>
	</g>
</g>
</svg>
